<svg id="Layer_2" data-name="Layer 2" xmlns="http://www.w3.org/2000/svg" viewBox="0 0 228.67 35.9">
  <defs>
    <style>
      .cls-1, .cls-2, .cls-3 { fill: #fff; stroke-width: 0px; }
      .cls-4 { fill: #fff; font-family: ArialMT, Arial; font-size: 23.3px; }
    </style>
  </defs>
  <g id="Layer_1-2" data-name="Layer 1">
    <g>
      <g transform="translate(15, 0)">
        <rect class="cls-1" x="161.08" y="12.23" width="3.13" height="16.4"/>
        <rect class="cls-1" x="121.02" y="16.09" width="3.13" height="12.53"/>
        <path class="cls-2" d="m137.24,28.62v-3.13s-9.14,0-9.14,0c-.86,0-1.57.7-1.57,1.57v1.57s10.7,0,10.7,0Z"/>
        <path class="cls-1" d="m135.29,23.56h-.18s.06,0,.09,0,.06,0,.09,0Z"/>
        <rect class="cls-1" x="136.11" y="23.55" width="2.96" height="0"/>
        <path class="cls-3" d="m139.07,16.1v1.57c0,.86-.7,1.57-1.57,1.57h-6.18s0-3.13,0-3.13h7.74Z"/>
        <path class="cls-3" d="m131.33,16.1v3.13s-1.83,0-1.83,0v-1.3c0-1.01.82-1.83,1.83-1.83h0Z"/>
        <path class="cls-2" d="m137.24,28.62v-3.13s1.83,0,1.83,0v1.3c0,1.01-.82,1.83-1.83,1.83h0Z"/>
        <path class="cls-1" d="m137.24,21.16v2.39s-5.35,0-5.35,0c-1.32,0-2.39-1.07-2.39-2.39h0s7.74,0,7.74,0Z"/>
        <path class="cls-1" d="m139.07,22.99v.56s-1.83,0-1.83,0v-2.39s0,0,0,0c1.01,0,1.83.82,1.83,1.83Z"/>
        <path class="cls-3" d="m189.36,16.94v15.56h-3.13v-10.14c0-1.73.7-3.29,1.83-4.43.38-.38.82-.72,1.3-.99Z"/>
        <rect class="cls-3" x="156.38" y="16.1" width="12.53" height="3.13"/>
        <path class="cls-1" d="m152.16,17.93c-1.14-1.13-2.7-1.83-4.43-1.83s-3.3.7-4.43,1.83c-1.13,1.14-1.83,2.7-1.83,4.43,0,3.46,2.8,6.27,6.26,6.27,1.73,0,3.3-.7,4.43-1.84,1.13-1.13,1.83-2.7,1.83-4.43s-.7-3.29-1.83-4.43Zm-2.22,6.65c-.57.56-1.35.91-2.22.91-1.73,0-3.13-1.4-3.13-3.13,0-.86.35-1.65.92-2.21.57-.57,1.35-.92,2.21-.92s1.65.35,2.22.92c.57.56.92,1.35.92,2.21s-.35,1.65-.92,2.22Z"/>
        <path class="cls-1" d="m182,17.93c-1.14-1.13-2.7-1.83-4.43-1.83s-3.3.7-4.43,1.83c-1.13,1.14-1.83,2.7-1.83,4.43,0,3.46,2.8,6.27,6.26,6.27,1.73,0,3.3-.7,4.43-1.84,1.13-1.13,1.83-2.7,1.83-4.43s-.7-3.29-1.83-4.43Zm-2.22,6.65c-.57.56-1.35.91-2.22.91-1.73,0-3.13-1.4-3.13-3.13,0-.86.35-1.65.92-2.21.57-.57,1.35-.92,2.21-.92s1.65.35,2.22.92c.57.56.92,1.35.92,2.21s-.35,1.65-.92,2.22Z"/>
        <path class="cls-1" d="m196.92,17.93c-1.14-1.13-2.7-1.83-4.43-1.83-1.14,0-2.21.3-3.13.84-.48.27-.91.61-1.3.99-1.13,1.14-1.83,2.7-1.83,4.43,0,2.32,1.26,4.35,3.13,5.43.92.54,1.99.84,3.13.84,1.73,0,3.3-.7,4.43-1.84,1.13-1.13,1.83-2.7,1.83-4.43s-.7-3.29-1.83-4.43Zm-2.22,6.65c-.57.56-1.35.91-2.22.91-1.73,0-3.13-1.4-3.13-3.13,0-.86.35-1.65.92-2.21.57-.57,1.35-.92,2.21-.92s1.65.35,2.22.92c.57.56.92,1.35.92,2.21s-.35,1.65-.92,2.22Z"/>
        <path class="cls-2" d="m204.48,21.17l.03.02s0,0,0-.02h-.04Z"/>
        <path class="cls-2" d="m204.48,21.17h.04s0,0,0,.02l-.03-.02Z"/>
        <path class="cls-1" d="m213.56,23.55h-12.3c.35,1.81,1.47,3.34,3.02,4.23.87.5,1.86.8,2.92.84.07,0,.14,0,.21,0,.05,0,.11,0,.16,0,1.66-.04,3.17-.73,4.27-1.83.19-.19.37-.39.53-.6l-2.67-1.69s-.05.06-.08.09c-.57.56-1.35.91-2.22.91-1.3,0-2.42-.8-2.89-1.93h9.04Zm-1.72-5.62c-1.14-1.13-2.7-1.83-4.43-1.83-1.14,0-2.21.3-3.13.84-.48.27-.91.61-1.3.99-.46.46-.84.98-1.14,1.56-.27.52-.47,1.08-.58,1.67h3.26c.16-.38.39-.73.68-1.01.57-.57,1.35-.92,2.21-.92s1.65.35,2.22.92c.29.28.52.63.68,1.01h3.26c-.24-1.25-.86-2.36-1.72-3.23Z"/>
        <g>
          <path class="cls-3" d="m213.56,23.56c.08-.39.12-.79.12-1.2v1.2h-.12Z"/>
          <path class="cls-3" d="m213.67,22.36c0,.41-.04.81-.12,1.2h-12.3c-.08-.39-.12-.79-.12-1.2s.04-.81.12-1.2h3.26s0,0,0,0h-.04l.03.02s0,0,0-.02h5.79s0,0,0,0h3.26c.07.39.11.79.11,1.2Z"/>
        </g>
        <path class="cls-3" d="m139.07,23.56v1.93h-3.87c.51,0,.91-.41.91-.91v-.11c0-.25-.1-.48-.27-.64-.14-.15-.34-.24-.55-.26h3.78Z"/>
        <path class="cls-2" d="m132.73,20.9c.17.17.39.27.65.27h-3.87v-1.94h3.87c-.51,0-.91.41-.91.91v.11c0,.25.1.48.27.65Z"/>
        <g>
          <rect class="cls-3" x="123.47" y=".83" width="2.39" height="2.39" rx="1.16" ry="1.16"/>
          <g>
            <g>
              <path class="cls-2" d="m128.85,6.24s0,.08,0,.12c0,.03,0,.05,0,.08,0,.04,0,.08,0,.12,0,.07,0,.13-.01.19,0,.1-.02.2-.03.31-.06.47-.17.91-.32,1.34l-2.95-1.07c.08-.21.14-.44.17-.67,0-.05.01-.1.02-.16,0-.03,0-.06,0-.1v-.06s0-.03,0-.04v-.12s0-.02,0-.04v-.06s0-.06,0-.09c0-.05,0-.1-.02-.16-.03-.23-.09-.46-.17-.67-.08-.21-.18-.42-.3-.6l2.65-1.68c.24.38.44.78.6,1.21.16.43.27.88.33,1.34.01.1.03.2.03.31,0,.06,0,.13.01.19,0,.04,0,.08,0,.12,0,.02,0,.05,0,.07,0,.04,0,.08,0,.12Z"/>
              <path class="cls-3" d="m122.32,3.12c-.61.05-1.17.28-1.64.63l-1.9-2.48c.92-.71,2.04-1.17,3.26-1.27l.27,3.12Z"/>
              <path class="cls-2" d="m120.68,3.76c-.11.08-.21.18-.31.27-.03.03-.06.06-.09.1h0c-.13.14-.24.28-.33.44-.12.19-.22.39-.3.6-.08.21-.13.44-.16.67,0,.05-.01.1-.02.16,0,.03,0,.06,0,.09v.06s0,.02,0,.04v.12s0,.03,0,.04v.06s0,.06,0,.1c0,.05,0,.11.02.16.03.23.09.46.17.67.08.21.18.42.3.61l-2.64,1.68c-.24-.38-.44-.78-.6-1.21-.16-.43-.26-.87-.32-1.34-.01-.1-.03-.2-.03-.31,0-.07,0-.13-.01-.19,0-.04,0-.08,0-.12,0-.03,0-.05,0-.08,0-.04,0-.08,0-.12s0-.08,0-.12c0-.02,0-.05,0-.07,0-.04,0-.08,0-.12,0-.06,0-.13.01-.19,0-.1.02-.2.03-.31.06-.47.17-.91.33-1.34.16-.43.36-.84.6-1.21.19-.31.42-.6.66-.87,0,0,0,0,0,0,.06-.07.13-.13.19-.19.19-.19.4-.37.62-.54l1.9,2.48Z"/>
              <path class="cls-3" d="m126.4,11.21c-.92.71-2.04,1.17-3.26,1.27-.18.02-.36.03-.55.03s-.37,0-.55-.03c-1.22-.1-2.35-.56-3.26-1.27-.29-.22-.56-.47-.81-.74t0,0c-.25-.27-.47-.56-.67-.87l2.64-1.68c.1.16.21.3.34.43.12.14.25.26.4.37.46.35,1.02.58,1.64.63.09,0,.18.01.27.01s.18,0,.27-.01c.61-.05,1.17-.28,1.63-.63l1.9,2.48Z"/>
            </g>
            <rect class="cls-1" x="120.65" y="4.32" width="3.87" height="3.87" rx="1.88" ry="1.88"/>
          </g>
        </g>
      </g>
      <text class="cls-4" transform="translate(0 28.33)"><tspan x="0" y="0">Powered by</tspan></text>
    </g>
  </g>
</svg>
