<svg id="Layer_1" data-name="Layer 1" xmlns="http://www.w3.org/2000/svg" viewBox="0 0 2000 2000"><defs><style>.cls-1{font-size:213.54px;font-family:BelganAesthetic-Regular, Belgan Aesthetic;}.cls-1,.cls-5{fill:#101c39;}.cls-2{letter-spacing:-0.07em;}.cls-3{letter-spacing:-0.02em;}.cls-4{fill:#cc4258;}</style></defs><text class="cls-1" transform="translate(75.8 1236.97)"><tspan class="cls-2">V</tspan><tspan class="cls-3" x="130.48" y="0">o</tspan><tspan x="237.25" y="0">yageons</tspan><tspan class="cls-4" x="995.11" y="0">Ensemble</tspan></text><path class="cls-5" d="M1441.78,851.79c-16.31-2.69-32.56-5.82-48.94-8-28.71-3.8-57.42-8.41-86.29-10.1-35.44-2.08-69,8.71-102,20.25-34.23,11.95-68.44,24-102.4,36.64-11.68,4.36-21.79.11-32-3.25-46-15.1-84.42-41.77-117.07-77.18-4.43-4.81-5.93-8.93-.61-14.35,42.26-43.14,87.44-81.45,150.05-90.84a218.13,218.13,0,0,1,31.25-2.52c57.21-.26,114.42-.16,171.63-.15a15.4,15.4,0,0,1,8.71,2.4L1185.16,818l.5,1.1c4.14-1.79,8.32-3.52,12.44-5.38,58.81-26.54,119.38-26.38,180.52-10.66,43.68,11.23,87,24,130.42,36.11,1.69.47,3.22,1.51,6.56,3.13-9.63,7.85-18,15.18-26.93,21.88-57.76,43.5-122.37,73.23-191.05,94.72a763.82,763.82,0,0,1-146.5,30.22,756.2,756.2,0,0,1-141.38,2.44C937.29,985.75,867,970.08,798.3,947c-66.15-22.28-126-56.22-179.67-100.59-37.42-30.93-73.55-63.41-110.16-95.31-17.55-15.29-34.88-30.83-54.17-47.9,5.18-.31,8.17-.65,11.16-.65q102.35-.06,204.68-.08c52.05-.06,98.14,16.62,137.87,50,41.14,34.53,82.07,69.23,127.39,98.35,52.44,33.69,107.89,59.91,169.68,71.32,44.63,8.24,89.21,7.56,133.76.1,62.43-10.46,121.39-31.89,179-57.49q12.06-5.35,24.1-10.78Z"/><circle class="cls-4" cx="886.4" cy="730.83" r="28.54"/></svg>