<svg id="Layer_1" data-name="Layer 1" xmlns="http://www.w3.org/2000/svg" viewBox="0 0 2000 2000"><defs><style>.cls-1{font-size:179.8px;font-family:BelganAesthetic-Regular, Belgan Aesthetic;}.cls-1,.cls-6{fill:#101c39;}.cls-2{letter-spacing:-0.07em;}.cls-3{letter-spacing:-0.02em;}.cls-4{letter-spacing:0em;}.cls-5{fill:#cc4258;}.cls-7{font-size:43.25px;fill:#231f20;font-family:Montserrat-Light, Montserrat;font-weight:300;}.cls-8{letter-spacing:-0.01em;}.cls-9{letter-spacing:0em;}.cls-10{letter-spacing:-0.04em;}</style></defs><text class="cls-1" transform="translate(223.89 1151.63)"><tspan class="cls-2">V</tspan><tspan class="cls-3" x="109.86" y="0">o</tspan><tspan class="cls-4" x="199.76" y="0">yageons</tspan><tspan class="cls-5" x="837.86" y="0">Ensemble</tspan></text><path class="cls-6" d="M1374,827.32c-13.74-2.27-27.42-4.9-41.21-6.72-24.18-3.2-48.35-7.08-72.65-8.5-29.84-1.75-58.1,7.33-85.93,17-28.82,10.06-57.62,20.18-86.22,30.85-9.83,3.67-18.35.09-27-2.74-38.7-12.71-71.08-35.17-98.57-65-3.73-4-5-7.51-.52-12.08,35.59-36.32,73.63-68.58,126.35-76.48a184,184,0,0,1,26.31-2.13c48.17-.21,96.34-.13,144.51-.12a13,13,0,0,1,7.33,2L1158,798.84l.41.92c3.5-1.51,7-3,10.48-4.53,49.52-22.34,100.52-22.21,152-9,36.77,9.46,73.22,20.2,109.81,30.41,1.42.39,2.7,1.27,5.52,2.64-8.11,6.6-15.19,12.78-22.68,18.42-48.63,36.62-103,61.66-160.85,79.75a643.72,643.72,0,0,1-123.36,25.44,636.25,636.25,0,0,1-119,2.05c-61-4.85-120.17-18-178-37.52-55.69-18.75-106.08-47.33-151.27-84.69-31.51-26-61.93-53.39-92.75-80.25-14.78-12.88-29.37-26-45.62-40.33,4.37-.26,6.89-.55,9.4-.55q86.17,0,172.34-.06c43.82-.06,82.63,14,116.08,42.07,34.64,29.07,69.1,58.29,107.26,82.81,44.15,28.36,90.84,50.44,142.87,60,37.57,6.94,75.11,6.36,112.62.08,52.56-8.81,102.21-26.86,150.7-48.41,6.77-3,13.53-6,20.29-9.07Z"/><circle class="cls-5" cx="906.39" cy="725.47" r="24.03"/><text class="cls-7" transform="translate(437.47 1257.92)"><tspan class="cls-8">P</tspan><tspan class="cls-9" x="30.49" y="0">ROFESSIONNALISME - FIABILITÉ - TRANS</tspan><tspan class="cls-10" x="925.18" y="0">P</tspan><tspan x="954.15" y="0">ARENCE </tspan></text></svg>